# xmcd
#
# Track frame offsets:
# 150
# 15091
# 30841
# 50602
# 65389
# 79588
# 95141
# 112028
# 130778
# 149759
# 171867
# 191830
# 209796
# 229904
# 242396
# 257900
# 279555
# 294606
# 315544
# 334410
#
# Disc length: 4700 seconds
#
#
# Revision: 1
# Processed by: cddbd v1.5.1PL2 Copyright (c) Steve Scherf et al.
# Submitted via: FreeRIP 2.945 
#
DISCID=2d125a14
DTITLE=Leonardo - Leonardo  As 20 Mais
DYEAR=1900
DGENRE=Sertanejo
TTITLE0=1 Vem Sonhar
TTITLE1=2 Eu Não Vou Mais Deixar Você Tão Só
TTITLE2=3 Coração Espinhado
TTITLE3=4 Todas As Coisas Do Mundo
TTITLE4=5 Alma Transparente
TTITLE5=6 Tô Fora
TTITLE6=7 Dona Encrenca
TTITLE7=8 Quero Cólo
TTITLE8=9 Cristal Quebrado
TTITLE9=10 Mano
TTITLE10=11 Deixaria Tudo
TTITLE11=12 Vou Seguir Te Amando
TTITLE12=13 Mentira Que Virou Paixão
TTITLE13=14 Róla Pinga
TTITLE14=15 Namoro Novo
TTITLE15=16  120...150...200...Km Por Hora
TTITLE16=17 Água De Cocô
TTITLE17=18 Meu Grito De Amor
TTITLE18=19 Um Sonhador
TTITLE19=20 Fiz Tudo Errado
EXTD=
EXTT0=
EXTT1=
EXTT2=
EXTT3=
EXTT4=
EXTT5=
EXTT6=
EXTT7=
EXTT8=
EXTT9=
EXTT10=
EXTT11=
EXTT12=
EXTT13=
EXTT14=
EXTT15=
EXTT16=
EXTT17=
EXTT18=
EXTT19=
PLAYORDER=
